<svg width="379" height="170" viewBox="0 0 379 170" fill="none" xmlns="http://www.w3.org/2000/svg">
<g clip-path="url(#clip0)">
<path fill-rule="evenodd" clip-rule="evenodd" d="M237.101 -0.0507812H378.936V169.954H237.101C249.061 160.511 259.54 149.313 268.188 136.734H345.893V101.561H281.788C283.379 90.5457 283.379 79.3571 281.788 68.3419H345.893V33.1684H270.131C260.936 20.4092 249.787 9.19686 237.101 -0.0507812V-0.0507812Z" fill="#EF3F3C"/>
<path fill-rule="evenodd" clip-rule="evenodd" d="M84.5369 136.785C74.1445 136.783 63.9948 133.626 55.4169 127.725C46.839 121.825 40.2328 113.457 36.4635 103.717H169.682C169.682 103.717 169.011 86.5449 169.011 84.9049C169.038 66.1317 162.857 47.8824 151.441 33.0296H183.624C190.437 32.968 197.195 34.2643 203.507 36.8438C209.819 39.4232 215.561 43.2348 220.4 48.0582C225.239 52.8815 229.081 58.6214 231.702 64.946C234.324 71.2707 235.673 78.055 235.673 84.9072C235.673 91.7594 234.324 98.5434 231.702 104.868C229.081 111.193 225.239 116.933 220.4 121.756C215.561 126.579 209.819 130.391 203.507 132.97C197.195 135.55 190.437 136.846 183.624 136.785H84.5369V136.785ZM183.628 169.861C205.929 169.703 227.263 160.684 242.977 144.769C258.69 128.854 267.509 107.336 267.509 84.9072C267.509 62.4789 258.69 40.9603 242.977 25.0455C227.263 9.13063 205.929 0.110859 183.628 -0.0467308H84.5369C73.394 -0.125474 62.3459 2.01379 52.0286 6.24782C41.7113 10.4819 32.3289 16.7271 24.4218 24.6236C16.5147 32.5201 10.2393 41.9119 5.95689 52.2581C1.67449 62.6043 -0.530273 73.7004 -0.530273 84.9072C-0.530273 96.114 1.67449 107.21 5.95689 117.556C10.2393 127.902 16.5147 137.294 24.4218 145.191C32.3289 153.087 41.7113 159.332 52.0286 163.566C62.3459 167.8 73.394 169.94 84.5369 169.861H183.628ZM84.5369 33.0296C73.3915 33.0318 62.5465 36.6636 53.6243 43.3813C44.7022 50.099 38.1826 59.5415 35.0413 70.2962H134.033C130.893 59.5408 124.373 50.0974 115.451 43.3795C106.529 36.6616 95.6828 33.0305 84.5369 33.0296V33.0296Z" fill="black"/>
<path opacity="0.5" fill-rule="evenodd" clip-rule="evenodd" d="M151.609 33.3663C143.825 22.9741 133.744 14.5455 122.163 8.74665C110.582 2.94779 97.8179 -0.0623241 84.8809 -0.0457064H85.5567C168.846 -0.82585 190.478 13.636 190.478 13.636C236.842 37.2752 234.782 78.1237 234.782 78.1237C226.261 35.1277 178.818 33.1732 178.818 33.1732L153.377 33.3704H151.626L151.609 33.3663ZM84.8809 169.862L85.7527 -0.0457064Z" fill="url(#paint0_linear)"/>
</g>
<defs>
<linearGradient id="paint0_linear" x1="159.783" y1="78.1196" x2="189" y2="11.5" gradientUnits="userSpaceOnUse">
<stop/>
<stop offset="1" stop-color="#DBD9D8"/>
</linearGradient>
<clipPath id="clip0">
<rect width="379" height="170" fill="white"/>
</clipPath>
</defs>
</svg>
