<svg width="305" height="110" viewBox="0 0 305 110" fill="none" xmlns="http://www.w3.org/2000/svg">
<path d="M220.164 41.0205H209.244V78.4005C209.239 79.1052 208.669 79.6751 207.964 79.6805H199.554C198.849 79.6751 198.28 79.1052 198.274 78.4005V41.0205H187.274C186.941 41.0341 186.617 40.9119 186.375 40.6819C186.134 40.4519 185.997 40.1338 185.994 39.8005V33.1805C185.997 32.8472 186.134 32.5291 186.375 32.2991C186.617 32.0691 186.941 31.9469 187.274 31.9605H220.144C220.853 31.9265 221.456 32.4717 221.494 33.1805V39.8005C221.456 40.5012 220.866 41.0433 220.164 41.0205Z" fill="#FF3366"/>
<path d="M255.184 79.4306C250.879 80.0464 246.533 80.3272 242.184 80.2706C233.894 80.2706 226.574 78.1506 226.574 66.4606V45.1306C226.574 33.4406 233.964 31.3906 242.244 31.3906C246.559 31.3315 250.872 31.609 255.144 32.2206C256.044 32.3506 256.424 32.6706 256.424 33.5006V39.5006C256.419 40.2053 255.849 40.7752 255.144 40.7806H241.644C238.644 40.7806 237.534 41.7806 237.534 45.1506V50.9906H254.674C255.379 50.996 255.949 51.5659 255.954 52.2706V58.3706C255.949 59.0753 255.379 59.6452 254.674 59.6506H237.534V66.4606C237.534 69.8006 238.624 70.8306 241.644 70.8306H255.184C255.889 70.836 256.459 71.4059 256.464 72.1106V78.1106C256.474 78.9106 256.084 79.3006 255.184 79.4306Z" fill="#FF3366"/>
<path d="M303.644 79.6803H293.434C292.722 79.7332 292.053 79.3329 291.764 78.6803L282.904 64.6803L274.904 78.4203C274.454 79.1903 274.004 79.7003 273.294 79.7003H263.814C263.565 79.7448 263.31 79.6767 263.117 79.5145C262.924 79.3522 262.813 79.1125 262.814 78.8603C262.827 78.7031 262.871 78.5502 262.944 78.4103L276.874 55.2203L262.814 33.1803C262.741 33.0619 262.697 32.9285 262.684 32.7903C262.731 32.2839 263.177 31.9098 263.684 31.9503H274.024C274.734 31.9503 275.244 32.5903 275.634 33.1703L283.854 46.1703L291.854 33.1703C292.144 32.5128 292.752 32.0515 293.464 31.9503H302.974C303.481 31.9098 303.926 32.2839 303.974 32.7903C303.961 32.9285 303.916 33.0619 303.844 33.1803L289.844 55.3503L304.414 78.3503C304.526 78.5458 304.591 78.765 304.604 78.9903C304.484 79.4303 304.154 79.6803 303.644 79.6803Z" fill="#FF3366"/>
<path d="M170.614 32.0906C170.134 32.08 169.715 32.4115 169.614 32.8806L160.284 67.4006C160.154 68.1106 159.964 68.4006 159.384 68.4006C158.804 68.4006 158.614 68.1406 158.484 67.4006L149.184 32.8806C149.083 32.4115 148.664 32.08 148.184 32.0906H139.004C138.696 32.0831 138.402 32.218 138.206 32.4564C138.011 32.6948 137.936 33.01 138.004 33.3106C138.004 33.3106 149.394 72.8806 149.514 73.3106C151.034 78.0306 154.724 80.3106 159.414 80.3106C163.914 80.4721 167.966 77.6066 169.314 73.3106C169.494 72.7706 180.634 33.3106 180.634 33.3106C180.698 33.0114 180.622 32.6992 180.427 32.4633C180.232 32.2274 179.94 32.0938 179.634 32.1006L170.614 32.0906Z" fill="#FF3366"/>
<path d="M118.584 0.000409645H22.8639C19.4002 0.0320764 16.2028 1.86456 14.4246 4.83711C12.6464 7.80966 12.5438 11.4935 14.1539 14.5604L23.7339 32.8004H6.37389C4.15602 32.7601 2.08241 33.8964 0.923053 35.7876C-0.236307 37.6787 -0.308267 40.0422 0.733892 42.0004L31.5339 100.2C32.6391 102.29 34.8096 103.598 37.1739 103.598C39.5382 103.598 41.7087 102.29 42.8139 100.2L51.1739 84.4304L61.6739 104.29C63.3811 107.515 66.7306 109.531 70.3789 109.531C74.0272 109.531 77.3767 107.515 79.0839 104.29L127.084 14.0404C128.673 11.0698 128.578 7.48126 126.833 4.59927C125.088 1.71728 121.953 -0.0307472 118.584 0.000409645ZM75.8139 38.1304L54.8139 77.5104C54.0924 78.8706 52.6786 79.7211 51.1389 79.7211C49.5992 79.7211 48.1854 78.8706 47.4639 77.5104L26.7339 38.5104C26.0943 37.3102 26.1317 35.8624 26.8323 34.6967C27.5329 33.5311 28.7939 32.8188 30.1539 32.8204H72.5739C73.852 32.8007 75.0453 33.4585 75.7111 34.5497C76.3769 35.6409 76.416 37.0028 75.8139 38.1304Z" fill="#FF3366"/>
</svg>
